<?xml version="1.0" encoding="UTF-8"?>
<svg width="246px" height="36px" viewBox="0 0 246 36" version="1.1" xmlns="http://www.w3.org/2000/svg" xmlns:xlink="http://www.w3.org/1999/xlink">
    <!-- Generator: Sketch 45.2 (43514) - http://www.bohemiancoding.com/sketch -->
    <title>Page 1</title>
    <desc>Created with Sketch.</desc>
    <defs>
        <polygon id="path-1" points="25.0310322 0.591 245.486 0.591 245.486 37 0 37 0 0.591 25.0310322 0.591 3.4037734e-05 0.590565932 3.4037734e-05 33.6329762 25.0310322 33.6329762"></polygon>
    </defs>
    <g id="Page-1" stroke="none" stroke-width="1" fill="none" fill-rule="evenodd">
        <g transform="translate(0.000000, -2.000000)">
            <path d="M130.583,16.4131 C129.308,15.7261 127.859,15.3111 126.345,15.3111 C125.207,15.3111 123.139,15.5891 123.139,16.9661 C123.139,20.0341 132.479,18.9311 132.479,24.4111 C132.479,27.6181 129.204,29.7881 124.759,29.7881 C123.206,29.7881 121.724,29.5481 120.277,28.9601 L119.071,25.5831 C121.07,26.8581 123.171,27.5131 125.55,27.5131 C126.964,27.5131 129.341,27.0321 129.341,25.2741 C129.341,21.7921 120.002,22.8951 120.002,17.6571 C120.002,14.0011 123.792,13.0361 126.757,13.0361 C128.032,13.0361 129.341,13.1401 130.583,13.4851 L130.583,16.4131 Z" id="Fill-1" fill="#FFFFFF"></path>
            <path d="M191.6699,18.8624 C191.2909,16.4504 189.7069,15.3114 187.2249,15.3114 C184.9159,15.3114 183.1909,16.6904 182.7769,18.8624 L191.6699,18.8624 Z M182.6409,20.8604 C182.7089,25.0674 185.6389,27.5124 189.5349,27.5124 C191.6019,27.5124 193.6019,26.9284 195.1879,25.6864 L195.2909,25.6864 L193.5659,28.9264 C192.0839,29.5484 190.4319,29.7884 188.8109,29.7884 C182.9509,29.7884 178.9179,26.1004 178.9179,21.3094 C178.9179,16.5184 182.3999,13.0364 187.5349,13.0364 C192.2249,13.0364 195.4279,16.4134 195.2909,20.8604 L182.6409,20.8604 Z" id="Fill-3" fill="#FFFFFF"></path>
            <path d="M210.9746,21.9639 C210.9746,18.6199 209.1816,15.3119 205.4926,15.3119 C202.2866,15.3119 200.2186,17.8269 200.2186,20.9309 C200.2186,24.1009 202.1156,27.5129 205.6326,27.5129 C208.8046,27.5129 210.9746,25.0679 210.9746,21.9639 M196.7386,21.5499 C196.7386,16.3799 200.9106,13.0359 205.8726,13.0359 C208.0796,13.0359 209.9766,13.6219 211.6286,15.0709 C213.3866,16.6199 214.4546,18.8959 214.4546,21.2389 C214.4546,26.2039 210.3186,29.7879 205.4586,29.7879 C200.7366,29.7879 196.7386,26.4459 196.7386,21.5499" id="Fill-5" fill="#FFFFFF"></path>
            <path d="M243.5899,16.4131 C242.3149,15.7261 240.8669,15.3111 239.3499,15.3111 C238.2149,15.3111 236.1449,15.5891 236.1449,16.9661 C236.1449,20.0341 245.4859,18.9311 245.4859,24.4111 C245.4859,27.6181 242.2109,29.7881 237.7639,29.7881 C236.2149,29.7881 234.7329,29.5481 233.2829,28.9601 L232.0779,25.5831 C234.0779,26.8581 236.1799,27.5131 238.5569,27.5131 C239.9709,27.5131 242.3499,27.0321 242.3499,25.2741 C242.3499,21.7921 233.0079,22.8951 233.0079,17.6571 C233.0079,14.0011 236.8009,13.0361 239.7639,13.0361 C241.0389,13.0361 242.3499,13.1401 243.5899,13.4851 L243.5899,16.4131 Z" id="Fill-7" fill="#FFFFFF"></path>
            <path d="M148.7324,29.3409 L148.7324,27.0049 C148.7124,26.5679 148.7324,26.0909 148.7324,25.5829 L148.7324,13.0359 L148.6284,13.0359 C148.0094,13.6219 146.9394,13.4859 146.0434,13.4859 L144.2874,13.4859 L144.2874,13.5889 C145.8024,14.4839 145.5954,15.7259 145.5954,17.3469 L145.5954,22.6539 C145.5954,25.3059 143.9414,27.1689 141.6684,27.1689 C138.6664,27.1689 137.7694,25.2039 137.7694,22.0319 L137.7694,13.0359 L137.6664,13.0359 C137.1834,13.4479 136.3244,13.4859 135.5644,13.4859 L133.3244,13.4859 L133.3244,13.5889 C134.8394,14.4499 134.6344,15.7259 134.6344,17.3099 L134.6344,22.6179 C134.6344,27.4799 136.5644,29.7879 140.6324,29.7879 C143.0454,29.7879 144.3554,28.9949 145.5954,27.1009 L145.5954,29.3409 L148.7324,29.3409 Z" id="Fill-9" fill="#FFFFFF"></path>
            <path d="M227.3428,20.8956 L227.3428,25.5476 C227.3428,26.0406 227.3638,26.5046 227.3428,26.9366 L227.3428,29.3406 L230.4758,29.3406 L230.4758,26.8366 C230.4618,26.4386 230.4798,26.0066 230.4798,25.5476 L230.4798,20.5496 C230.4798,18.9306 230.5828,16.7916 229.6178,15.4136 C228.5168,13.7956 226.3098,13.0366 224.3778,13.0366 C222.1398,13.0366 220.7238,14.0366 219.5188,15.6906 L219.5188,13.0366 L219.4148,13.0366 C218.6928,13.4486 217.8638,13.4856 217.1068,13.4856 L215.0728,13.4856 L215.0728,13.5886 C216.5868,14.4506 216.3818,15.7256 216.3818,17.3096 L216.3818,25.5146 C216.3818,26.0226 216.4038,26.4996 216.3818,26.9386 L216.3818,29.3406 L219.5188,29.3406 L219.5188,26.9656 C219.4988,26.5306 219.5188,26.0576 219.5188,25.5476 L219.5188,19.4486 C219.5188,17.4136 220.0358,15.3116 223.1728,15.3116 C226.3098,15.3116 227.3428,17.2066 227.3428,20.8956" id="Fill-11" fill="#FFFFFF"></path>
            <path d="M159.3897,13.0362 C157.6647,13.0362 156.0787,14.1062 155.3217,15.6572 L155.3217,13.0362 L155.2177,13.0362 C154.7357,13.4482 153.9097,13.4852 153.1167,13.4852 L150.9097,13.4852 L150.9097,13.5892 C152.3917,14.4502 152.1847,15.6902 152.1847,17.2762 L152.1847,25.5152 C152.1847,26.0222 152.2077,26.4992 152.1847,26.9382 L152.1847,29.3412 L155.3217,29.3412 L155.3217,26.9382 C155.2997,26.4992 155.3217,26.0222 155.3217,25.5152 L155.3217,20.6882 C155.3217,17.1402 156.4247,15.7612 159.0457,15.7612 C159.6317,15.7612 160.2507,15.8972 160.6317,16.3112 L160.6317,13.1402 L159.3897,13.0362 Z" id="Fill-13" fill="#FFFFFF"></path>
            <path d="M165.1221,18.3448 C165.1221,16.3448 166.7391,15.3118 168.6361,15.3118 C171.0831,15.3118 172.9441,16.9308 172.9441,19.1378 C172.9441,21.1358 171.4291,22.4818 169.3601,22.4818 C167.1201,22.4818 165.1221,20.5848 165.1221,18.3448 M169.7391,26.3408 C169.2901,26.3408 167.6711,26.4468 167.6711,25.6868 C167.6711,25.1008 168.6021,24.7898 169.0831,24.7568 C172.2221,24.4818 176.4271,23.2748 176.4271,19.3778 C176.4271,17.6198 175.4271,16.1378 173.9791,15.2078 C175.1511,15.3818 176.3231,15.6568 177.5301,15.6568 C178.2881,15.6568 178.3561,15.4498 178.6321,14.8288 L179.4251,13.0358 L169.0521,13.0358 C165.4991,13.0358 161.6401,14.8978 161.6401,18.8958 C161.6401,21.4818 163.7081,23.7218 166.1881,24.2038 C165.4641,24.5498 163.4661,25.0318 163.4661,26.0318 C163.4661,27.2728 164.4641,28.5128 165.9831,28.4798 L168.3601,28.4108 C170.4621,28.4108 175.3931,28.5828 175.3931,31.6158 C175.3931,33.9208 172.9661,34.8058 170.8291,35.0718 C170.7511,35.0888 170.6591,35.0988 170.5481,35.1028 C170.4171,35.1148 170.2881,35.1258 170.1591,35.1338 C168.2001,35.4188 168.2291,37.4018 170.3081,37.4068 C175.1491,37.1238 178.8741,34.9928 178.8741,31.3738 C178.8741,27.9598 175.7021,26.3408 169.7391,26.3408" id="Fill-15" fill="#FFFFFF"></path>
            <path d="M90.5664,22.6534 C90.5664,23.9624 90.1514,27.5124 93.8394,27.5124 C94.3224,27.5124 94.7714,27.3404 95.2184,27.1694 L93.3904,29.6164 C93.0464,29.7194 92.6684,29.7884 92.2894,29.7884 C86.9454,29.7884 87.4284,24.2744 87.4284,22.9284 L87.4284,15.7604 L85.0854,15.7604 L85.0854,14.5184 C88.3244,13.9674 89.1854,11.5534 89.1854,8.3484 L90.5664,8.3484 L90.5664,13.4854 L93.8044,13.4854 C94.2544,13.4854 94.7714,13.4854 95.1154,13.2784 L95.2184,13.2784 L95.2184,16.4134 L95.1154,16.4134 C94.5644,15.6904 93.5294,15.7604 92.6324,15.7604 L90.5664,15.7604 L90.5664,22.6534 Z" id="Fill-17" fill="#FFFFFF"></path>
            <path d="M110.9668,29.7881 C108.6918,29.6491 106.4158,28.9601 106.4158,26.2041 L106.4158,20.7571 C105.4178,21.2741 104.2458,21.5501 103.1078,21.8251 C101.4528,22.2061 99.5918,22.5851 99.5918,24.6861 C99.5918,26.8251 101.5238,27.5131 103.3498,27.5131 C104.1778,27.5131 105.0038,27.2721 105.8298,27.0321 L103.7988,29.6161 C103.2108,29.7201 102.5918,29.7881 102.0058,29.7881 C98.5238,29.7881 96.1118,27.5811 96.1118,24.7221 C96.1118,18.3091 106.4158,21.2741 106.4158,17.5171 C106.4158,15.8641 104.3848,15.3111 103.1078,15.3111 C101.3498,15.3111 99.9708,15.9661 98.4198,16.6901 L100.7308,13.2431 L102.9688,13.0361 C106.6918,13.0361 109.5198,14.1061 109.5528,18.2761 L109.5528,23.4461 C109.5528,26.1691 109.6228,27.2041 112.4848,27.5131 L110.9668,29.7881 Z" id="Fill-19" fill="#FFFFFF"></path>
            <path d="M79.5332,17.2764 L79.5332,25.5144 C79.5332,26.0224 79.5542,26.4994 79.5332,26.9384 L79.5332,29.3404 L82.6702,29.3404 L82.6702,26.9384 C82.6482,26.4994 82.6702,26.0224 82.6702,25.5144 L82.6702,12.9324 L82.5662,12.9324 C81.9802,13.4484 81.1192,13.4854 80.3262,13.4854 L78.2222,13.4854 L78.2222,13.5884 C79.7402,14.4504 79.5332,15.6904 79.5332,17.2764" id="Fill-21" fill="#FFFFFF"></path>
            <path d="M113.6963,10.4854 L113.6963,25.5144 C113.6963,26.0304 113.7193,26.5144 113.6963,26.9604 L113.6963,29.3404 L116.8323,29.3404 L116.8323,27.1044 C116.8023,26.6184 116.8323,26.0854 116.8323,25.5144 L116.8323,6.1084 L116.7303,6.1084 C116.2133,6.6944 115.3173,6.6594 114.5243,6.6594 L112.4233,6.6594 L112.4233,6.7624 C113.9043,7.6244 113.6963,8.9014 113.6963,10.4854" id="Fill-23" fill="#FFFFFF"></path>
            <path d="M53.2461,17.2764 L53.2461,25.5144 C53.2461,26.0224 53.2671,26.4994 53.2461,26.9384 L53.2461,29.3404 L56.3841,29.3404 L56.3841,26.9384 C56.3611,26.4994 56.3841,26.0224 56.3841,25.5144 L56.3841,12.9324 L56.2801,12.9324 C55.6931,13.4484 54.8321,13.4854 54.0391,13.4854 L51.9361,13.4854 L51.9361,13.5884 C53.4551,14.4504 53.2461,15.6904 53.2461,17.2764" id="Fill-25" fill="#FFFFFF"></path>
            <path d="M45.9004,29.3409 L49.0374,29.3409 L49.0374,26.9719 C49.0154,26.5319 49.0374,26.0579 49.0374,25.5479 L49.0374,6.1089 L48.9334,6.1089 C48.5544,6.6589 47.7264,6.6589 46.9334,6.6589 L44.5894,6.6589 L44.5894,6.7629 C46.1074,7.6609 45.9004,8.9019 45.9004,10.4859 L45.9004,15.0359 C44.4534,13.7589 42.5214,13.0359 40.5914,13.0359 C35.8694,13.0359 32.4224,16.7919 32.4224,21.4459 C32.4224,26.5809 36.1104,29.7879 41.1424,29.7879 C41.7634,29.7879 42.3494,29.7879 42.9354,29.6159 L44.9704,26.5149 C44.0394,27.1009 43.1094,27.5129 42.0054,27.5129 C38.3854,27.5129 35.9044,24.4459 35.9044,20.9639 C35.9044,17.8269 38.1444,15.3119 40.9024,15.3119 C42.7294,15.3119 44.4874,16.1379 45.3494,17.7939 C46.0044,19.0679 45.9004,20.5849 45.9004,21.9639 L45.9004,29.3409 Z" id="Fill-27" fill="#FFFFFF"></path>
            <path d="M62.3867,18.3448 C62.3867,16.3448 64.0077,15.3118 65.9047,15.3118 C68.3507,15.3118 70.2117,16.9308 70.2117,19.1378 C70.2117,21.1358 68.6957,22.4818 66.6267,22.4818 C64.3867,22.4818 62.3867,20.5848 62.3867,18.3448 M67.0057,26.3408 C66.5587,26.3408 64.9377,26.4468 64.9377,25.6868 C64.9377,25.1008 65.8677,24.7898 66.3517,24.7568 C69.4887,24.4818 73.6937,23.2748 73.6937,19.3778 C73.6937,17.6198 72.6937,16.1378 71.2457,15.2078 C72.4177,15.3818 73.5897,15.6568 74.7967,15.6568 C75.5567,15.6568 75.6227,15.4498 75.9007,14.8288 L76.6937,13.0358 L66.3177,13.0358 C62.7667,13.0358 58.9067,14.8978 58.9067,18.8958 C58.9067,21.4818 60.9747,23.7218 63.4557,24.2038 C62.7327,24.5498 60.7327,25.0318 60.7327,26.0318 C60.7327,27.2728 61.7327,28.5128 63.2497,28.4798 L65.6267,28.4108 C67.7307,28.4108 72.6577,28.5828 72.6577,31.6158 C72.6577,33.9738 70.1197,34.8448 67.9487,35.0888 C67.9197,35.0908 67.8927,35.0948 67.8617,35.0968 C67.6877,35.1148 67.5157,35.1298 67.3477,35.1418 C65.4197,35.4468 65.4667,37.4068 67.5397,37.4068 C67.5447,37.4068 67.5487,37.4088 67.5547,37.4088 C72.4077,37.1298 76.1427,34.9988 76.1427,31.3738 C76.1427,27.9598 72.9697,26.3408 67.0057,26.3408" id="Fill-29" fill="#FFFFFF"></path>
            <g id="Group-33" transform="translate(0.000000, 0.409300)">
                <mask id="mask-2" fill="white">
                    <use xlink:href="#path-1"></use>
                </mask>
                <g id="Clip-32"></g>
                <path d="M23.4883,0.5927 L13.1933,1.3687 C13.0033,1.3827 12.8263,1.4427 12.6723,1.5407 C12.5123,1.6367 12.3783,1.7717 12.2683,1.9317 C12.1603,2.0937 12.0783,2.2797 12.0313,2.4847 C11.9843,2.6877 11.9703,2.9077 12.0003,3.1347 L13.3983,14.3397 C13.4223,14.5327 13.4093,14.7267 13.3653,14.9057 C13.3223,15.0917 13.2473,15.2657 13.1463,15.4197 C13.0473,15.5737 12.9223,15.7127 12.7773,15.8217 C12.6333,15.9317 12.4673,16.0137 12.2893,16.0607 L1.3833,18.8437 C1.1523,18.9027 0.9403,19.0037 0.7563,19.1347 C0.5693,19.2677 0.4123,19.4297 0.2893,19.6097 C0.1663,19.7917 0.0783,19.9927 0.0333,20.2007 C-0.0117,20.4097 -0.0117,20.6267 0.0373,20.8377 L2.8213,32.8567 C2.8613,33.0307 2.9433,33.1797 3.0543,33.2997 C3.1653,33.4157 3.3043,33.5057 3.4653,33.5627 C3.6253,33.6177 3.8043,33.6407 3.9943,33.6307 C4.1813,33.6177 4.3813,33.5717 4.5803,33.4867 L15.4493,28.8207 C15.6013,28.7537 15.7423,28.6597 15.8673,28.5467 C15.9923,28.4337 16.1013,28.3017 16.1893,28.1577 C16.2753,28.0137 16.3413,27.8597 16.3823,27.7017 C16.4223,27.5427 16.4343,27.3827 16.4183,27.2287 L15.4013,18.2807 C15.3813,18.1017 15.3953,17.9207 15.4373,17.7477 C15.4803,17.5757 15.5523,17.4077 15.6443,17.2587 C15.7403,17.1097 15.8573,16.9777 15.9903,16.8727 C16.1243,16.7657 16.2733,16.6867 16.4333,16.6427 L24.1493,14.5077 C24.2773,14.4717 24.4003,14.4047 24.5093,14.3147 C24.6173,14.2227 24.7133,14.1077 24.7933,13.9777 C24.8723,13.8457 24.9353,13.6977 24.9753,13.5437 C25.0173,13.3887 25.0373,13.2257 25.0293,13.0597 L24.5763,1.9277 C24.5683,1.7377 24.5333,1.5547 24.4743,1.3907 C24.4163,1.2257 24.3363,1.0787 24.2373,0.9587 C24.1383,0.8357 24.0233,0.7397 23.8973,0.6777 C23.7713,0.6137 23.6323,0.5817 23.4883,0.5927" id="Fill-31" fill="#5F5F5F" mask="url(#mask-2)"></path>
            </g>
            <path d="M23.488266,2.00213407 L13.193266,2.77813407 C13.003266,2.79213407 12.826266,2.85213407 12.672266,2.95013407 C12.512266,3.04613407 12.378266,3.18113407 12.268266,3.34113407 C12.160266,3.50313407 12.078266,3.68913407 12.031266,3.89413407 C11.984266,4.09713407 11.970266,4.31713407 12.000266,4.54413407 L13.398266,15.7491341 C13.422266,15.9421341 13.409266,16.1361341 13.365266,16.3151341 C13.322266,16.5011341 13.247266,16.6751341 13.146266,16.8291341 C13.047266,16.9831341 12.922266,17.1221341 12.777266,17.2311341 C12.633266,17.3411341 12.467266,17.4231341 12.289266,17.4701341 L1.38326596,20.2531341 C1.15226596,20.3121341 0.940265962,20.4131341 0.756265962,20.5441341 C0.569265962,20.6771341 0.412265962,20.8391341 0.289265962,21.0191341 C0.166265962,21.2011341 0.0782659623,21.4021341 0.0332659623,21.6101341 C-0.0117340377,21.8191341 -0.0117340377,22.0361341 0.0372659623,22.2471341 L2.82126596,34.2661341 C2.86126596,34.4401341 2.94326596,34.5891341 3.05426596,34.7091341 C3.16526596,34.8251341 3.30426596,34.9151341 3.46526596,34.9721341 C3.62526596,35.0271341 3.80426596,35.0501341 3.99426596,35.0401341 C4.18126596,35.0271341 4.38126596,34.9811341 4.58026596,34.8961341 L15.449266,30.2301341 C15.601266,30.1631341 15.742266,30.0691341 15.867266,29.9561341 C15.992266,29.8431341 16.101266,29.7111341 16.189266,29.5671341 C16.275266,29.4231341 16.341266,29.2691341 16.382266,29.1111341 C16.422266,28.9521341 16.434266,28.7921341 16.418266,28.6381341 L15.401266,19.6901341 C15.381266,19.5111341 15.395266,19.3301341 15.437266,19.1571341 C15.480266,18.9851341 15.552266,18.8171341 15.644266,18.6681341 C15.740266,18.5191341 15.857266,18.3871341 15.990266,18.2821341 C16.124266,18.1751341 16.273266,18.0961341 16.433266,18.0521341 L24.149266,15.9171341 C24.277266,15.8811341 24.400266,15.8141341 24.509266,15.7241341 C24.617266,15.6321341 24.713266,15.5171341 24.793266,15.3871341 C24.872266,15.2551341 24.935266,15.1071341 24.975266,14.9531341 C25.017266,14.7981341 25.037266,14.6351341 25.029266,14.4691341 L24.576266,3.33713407 C24.568266,3.14713407 24.533266,2.96413407 24.474266,2.80013407 C24.416266,2.63513407 24.336266,2.48813407 24.237266,2.36813407 C24.138266,2.24513407 24.023266,2.14913407 23.897266,2.08713407 C23.771266,2.02313407 23.632266,1.99113407 23.488266,2.00213407" id="Fill-1" fill="#FFFFFF"></path>
        </g>
    </g>
</svg>